<svg width="40" height="40" viewBox="0 0 40 40" fill="none" xmlns="http://www.w3.org/2000/svg">
<g clip-path="url(#clip0_1_375)">
<path d="M40 20C40 8.95403 31.046 0 20 0C8.95403 0 0 8.95403 0 20C0 29.38 6.45737 37.2495 15.1686 39.4114V26.1116H11.0444V20H15.1686V17.3666C15.1686 10.5587 18.2491 7.40354 24.932 7.40354C26.1996 7.40354 28.3859 7.65265 29.2802 7.90098V13.4413C28.8079 13.3917 27.9882 13.3666 26.9697 13.3666C23.6904 13.3666 22.4228 14.609 22.4228 17.8389V20H28.9556L27.8334 26.1116H22.4228V39.8538C32.3261 38.6578 40 30.2255 40 20Z" fill="#0866FF"/>
<path d="M27.8334 26.1116L28.9556 20H22.4228V17.8389C22.4228 14.6091 23.6903 13.3666 26.9697 13.3666C27.9882 13.3666 28.8078 13.3918 29.2801 13.4413V7.90101C28.3858 7.65268 26.1996 7.40356 24.932 7.40356C18.2491 7.40356 15.1685 10.5596 15.1685 17.3666V20H11.0444V26.1116H15.1685V39.4114C16.7159 39.7949 18.334 40 20 40C20.8204 40 21.6283 39.9497 22.4228 39.8539V26.1116H27.8334Z" fill="white"/>
</g>
<defs>
<clipPath id="clip0_1_375">
<rect width="40" height="40" fill="white"/>
</clipPath>
</defs>
</svg>
