<svg width="39" height="15" viewBox="0 0 39 15" fill="none" xmlns="http://www.w3.org/2000/svg">
<path d="M28.5 5.9248L32 9.0748L35.5 5.9248" stroke="#000E18" stroke-linecap="round" stroke-linejoin="round"/>
<g clip-path="url(#clip0_1_236)">
<g clip-path="url(#clip1_1_236)">
<path d="M0 0H23V15H0V0Z" fill="white"/>
<path d="M0 0H23V1.15351H0V0ZM0 2.30702H23V3.46053H0V2.30702ZM0 4.61404H23V5.76754H0V4.61404ZM0 6.92105H23V8.07456H0V6.92105ZM0 9.23246H23V10.386H0V9.23246ZM0 11.5395H23V12.693H0V11.5395ZM0 13.8465H23V15H0V13.8465Z" fill="#D80027"/>
<path d="M0 0H11.5V8.07456H0V0Z" fill="#2E52B2"/>
<path d="M2.14323 6.0908L1.96389 5.5294L1.76662 6.0908H1.1748L1.65453 6.42852L1.47519 6.98993L1.96389 6.64344L2.43913 6.98993L2.25531 6.42852L2.74401 6.0908H2.14323ZM4.6674 6.0908L4.48358 5.5294L4.29527 6.0908H3.70346L4.18319 6.42852L4.00385 6.98993L4.48358 6.64344L4.96779 6.98993L4.78845 6.42852L5.26818 6.0908H4.6674ZM7.20054 6.0908L7.00775 5.5294L6.82841 6.0908H6.22315L6.71633 6.42852L6.52802 6.98993L7.00775 6.64344L7.50093 6.98993L7.31262 6.42852L7.79235 6.0908H7.20054ZM9.72022 6.0908L9.54089 5.5294L9.35258 6.0908H8.75629L9.2405 6.42852L9.06116 6.98993L9.54089 6.64344L10.0251 6.98993L9.83231 6.42852L10.3255 6.0908H9.72022ZM4.48358 3.30133L4.29527 3.86273H3.70346L4.18319 4.20922L4.00385 4.76186L4.48358 4.41975L4.96779 4.76186L4.78845 4.20922L5.26818 3.86273H4.6674L4.48358 3.30133ZM1.96389 3.30133L1.76662 3.86273H1.1748L1.65453 4.20922L1.47519 4.76186L1.96389 4.41975L2.43913 4.76186L2.25531 4.20922L2.74401 3.86273H2.14323L1.96389 3.30133ZM7.00775 3.30133L6.82841 3.86273H6.22315L6.71633 4.20922L6.52802 4.76186L7.00775 4.41975L7.50093 4.76186L7.31262 4.20922L7.79235 3.86273H7.20054L7.00775 3.30133ZM9.54089 3.30133L9.35258 3.86273H8.75629L9.2405 4.20922L9.06116 4.76186L9.54089 4.41975L10.0251 4.76186L9.83231 4.20922L10.3255 3.86273H9.72022L9.54089 3.30133ZM1.96389 1.08203L1.76662 1.63466H1.1748L1.65453 1.98115L1.47519 2.53817L1.96389 2.19168L2.43913 2.53817L2.25531 1.98115L2.74401 1.63466H2.14323L1.96389 1.08203ZM4.48358 1.08203L4.29527 1.63466H3.70346L4.18319 1.98115L4.00385 2.53817L4.48358 2.19168L4.96779 2.53817L4.78845 1.98115L5.26818 1.63466H4.6674L4.48358 1.08203ZM7.00775 1.08203L6.82841 1.63466H6.22315L6.71633 1.98115L6.52802 2.53817L7.00775 2.19168L7.50093 2.53817L7.31262 1.98115L7.79235 1.63466H7.20054L7.00775 1.08203ZM9.54089 1.08203L9.35258 1.63466H8.75629L9.2405 1.98115L9.06116 2.53817L9.54089 2.19168L10.0251 2.53817L9.83231 1.98115L10.3255 1.63466H9.72022L9.54089 1.08203Z" fill="white"/>
</g>
</g>
<defs>
<clipPath id="clip0_1_236">
<rect width="23" height="15" fill="white"/>
</clipPath>
<clipPath id="clip1_1_236">
<rect width="23" height="15" fill="white"/>
</clipPath>
</defs>
</svg>
