<svg width="20" height="20" viewBox="0 0 20 20" fill="none" xmlns="http://www.w3.org/2000/svg">
<g clip-path="url(#clip0_1_353)">
<g clip-path="url(#clip1_1_353)">
<path fill-rule="evenodd" clip-rule="evenodd" d="M10.208 1.66699C13.9988 1.66699 17.0831 4.7745 17.0831 8.5945C17.0831 13.2904 11.7031 17.917 10.208 17.917C8.71301 17.917 3.33301 13.2904 3.33301 8.5945C3.33301 4.7745 6.41718 1.66699 10.208 1.66699ZM10.208 2.91699C7.10634 2.91699 4.58301 5.4645 4.58301 8.5945C4.58301 12.577 9.26967 16.457 10.208 16.6636C11.1463 16.4562 15.8331 12.5762 15.8331 8.5945C15.8331 5.4645 13.3097 2.91699 10.208 2.91699ZM10.2088 5.83367C11.7022 5.83367 12.9172 7.04867 12.9172 8.54283C12.9172 10.0362 11.7022 11.2504 10.2088 11.2504C8.7155 11.2504 7.50051 10.0362 7.50051 8.54283C7.50051 7.04867 8.7155 5.83367 10.2088 5.83367ZM10.2088 7.08367C9.40467 7.08367 8.75051 7.73783 8.75051 8.54283C8.75051 9.34699 9.40467 10.0003 10.2088 10.0003C11.0131 10.0003 11.6672 9.34699 11.6672 8.54283C11.6672 7.73783 11.0131 7.08367 10.2088 7.08367Z" fill="#002D4F"/>
</g>
</g>
<defs>
<clipPath id="clip0_1_353">
<rect width="20" height="20" fill="white"/>
</clipPath>
<clipPath id="clip1_1_353">
<rect width="20" height="20" fill="white"/>
</clipPath>
</defs>
</svg>
