<svg width="40" height="40" viewBox="0 0 40 40" fill="none" xmlns="http://www.w3.org/2000/svg">
<g clip-path="url(#clip0_1_372)">
<path d="M20 40C31.0457 40 40 31.0457 40 20C40 8.9543 31.0457 0 20 0C8.9543 0 0 8.9543 0 20C0 31.0457 8.9543 40 20 40Z" fill="url(#paint0_linear_1_372)"/>
<path fill-rule="evenodd" clip-rule="evenodd" d="M9.05331 19.7894C14.8838 17.2487 18.7713 15.5745 20.7166 14.7651C26.2713 12.455 27.4252 12.0534 28.1775 12.0401C28.3432 12.0378 28.7127 12.0784 28.9525 12.2729C29.1549 12.437 29.2103 12.6589 29.2369 12.8144C29.2635 12.9706 29.2971 13.3245 29.2705 13.6019C28.9697 16.7644 27.6674 24.4386 27.0049 27.9808C26.7244 29.48 26.1721 29.9823 25.6377 30.0315C24.4768 30.1386 23.5947 29.2636 22.4697 28.5261C20.7096 27.3729 19.715 26.6542 18.0064 25.5284C16.0314 24.2269 17.3119 23.512 18.4369 22.3433C18.7314 22.037 23.8486 17.3823 23.9478 16.9604C23.9603 16.9073 23.9721 16.7104 23.8549 16.6065C23.7377 16.5026 23.565 16.5386 23.4408 16.5667C23.2643 16.6065 20.4525 18.4651 15.0049 22.1425C14.2064 22.6909 13.483 22.9573 12.8353 22.944C12.1213 22.9284 10.7478 22.5401 9.72675 22.2081C8.47441 21.8011 7.47909 21.5854 7.56581 20.894C7.61034 20.5339 8.10644 20.1659 9.05331 19.7894Z" fill="white"/>
</g>
<defs>
<linearGradient id="paint0_linear_1_372" x1="20" y1="0.3" x2="20" y2="40" gradientUnits="userSpaceOnUse">
<stop stop-color="#2AABEE"/>
<stop offset="1" stop-color="#229ED9"/>
</linearGradient>
<clipPath id="clip0_1_372">
<rect width="40" height="40" fill="white"/>
</clipPath>
</defs>
</svg>
