<svg width="40" height="40" viewBox="0 0 40 40" fill="none" xmlns="http://www.w3.org/2000/svg">
<g clip-path="url(#clip0_1_367)">
<path fill-rule="evenodd" clip-rule="evenodd" d="M8.69564 0H31.3044C36.0871 0 40 3.91305 40 8.69573V31.3044C40 36.0869 36.0871 40 31.3044 40H8.69564C3.91294 40 0 36.0869 0 31.3044V8.69573C0 3.91305 3.91294 0 8.69564 0ZM24.0154 8.4771C24.0153 8.47706 24.0153 8.47709 24.0153 8.47715C24.0468 8.74636 24.0894 9.00878 24.1428 9.26379C24.1691 9.38966 24.2813 9.47791 24.4099 9.47795L24.5464 9.478C24.7749 9.47807 24.9659 9.64939 25.0014 9.87503C25.1379 10.7424 25.3831 11.5483 25.7349 12.2596C25.8759 12.5448 26.077 12.7975 26.3296 12.991C27.0099 13.5122 27.8267 13.8656 28.7682 14.014C29.097 14.0658 29.3564 14.3377 29.3564 14.6705V14.8089C29.3564 15.0272 29.5033 15.2164 29.7195 15.2467C29.9602 15.2803 30.1555 15.48 30.1555 15.7231V17.1028C30.1555 18.0963 29.4661 18.9621 28.4868 18.7945C26.9337 18.5287 25.0941 19.4562 25.166 21.0302L25.2767 23.4515C25.2767 25.4193 25.284 26.3185 24.2281 28.1287C21.9457 32.0414 17.9046 32.4817 15.0339 30.7782C14.5752 30.506 14.1038 30.2517 13.6227 30.0216C12.462 29.4665 11.4578 28.6009 10.7813 27.4941C8.50727 23.7736 10.3561 17.8189 16.5296 16.7057C17.0239 16.6166 17.4585 17.0161 17.4525 17.5184C17.4525 17.6404 17.5645 17.7314 17.6844 17.7093C17.811 17.686 17.9398 17.6647 18.0706 17.6456C18.3685 17.602 18.6277 17.8388 18.6277 18.1398V19.6987C18.6277 20.6431 17.9185 21.3897 17.0508 21.7624C16.4313 22.0285 15.9949 22.3935 15.7335 22.8935C15.1962 23.9209 15.1303 24.8668 15.3669 25.6607C15.6628 26.6531 16.7723 27.2343 17.7499 26.8928C19.1212 26.4138 20.2195 24.8678 19.9801 21.8085V9.65761C19.9801 9.00569 20.5086 8.47721 21.1605 8.47721H24.0153C24.0154 8.47721 24.0154 8.47714 24.0154 8.4771Z" fill="#1A121F"/>
<path fill-rule="evenodd" clip-rule="evenodd" d="M24.0153 8.47668C24.3864 11.6454 26.2851 13.8812 29.3565 14.0784V17.0839L29.3367 17.0857V14.5327C26.2653 14.3356 24.4994 12.4459 24.1282 9.2772L20.8745 9.27708V22.6084C21.344 28.6089 16.6686 28.7871 14.88 26.5121C16.9778 27.8241 20.384 26.9712 19.9801 21.8079V8.47656H24.0154L24.0153 8.47668ZM15.2728 30.5763C13.4346 30.1979 11.763 29.0996 10.7813 27.4936C8.39628 23.5918 10.5462 17.2323 17.4637 16.5778L17.4524 17.518C11.0391 18.5394 10.3954 25.4283 12.1713 28.2942C12.8562 29.3992 13.9805 30.1765 15.2728 30.5764V30.5763Z" fill="#26F4EE"/>
<path fill-rule="evenodd" clip-rule="evenodd" d="M24.9471 9.47778C25.1584 11.2821 25.8222 12.852 26.9215 13.9061C25.3776 13.1075 24.4459 11.5883 24.1541 9.47754L24.9472 9.47778H24.9471ZM29.3366 15.1791C29.5984 15.2346 29.8714 15.2723 30.1555 15.2905V18.8533C28.3739 19.0287 26.8146 18.4422 24.9978 17.3496L25.2767 23.4512C25.2767 25.4189 25.284 26.3182 24.2281 28.1284C21.655 32.5396 16.8461 32.5375 13.9995 30.0256C17.7111 32.1574 24.1908 30.4884 24.1789 23.2513V16.5918C25.9959 17.6844 27.555 18.2709 29.3366 18.0954V15.1792V15.1791ZM17.4524 17.7542C17.825 17.6767 18.2162 17.617 18.6276 17.5781V21.3354C17.1296 21.5822 16.1782 22.0422 15.7334 22.893C14.4805 25.2886 15.7903 27.2415 17.5241 27.8567C15.3551 27.7788 13.203 25.551 14.6975 22.693C15.1424 21.8424 15.9544 21.3823 17.4525 21.1354V17.7542H17.4524Z" fill="#FB2C53"/>
<path fill-rule="evenodd" clip-rule="evenodd" d="M24.1281 9.27759C24.4992 12.4463 26.2651 14.336 29.3365 14.5331V18.0957C27.5549 18.2712 25.9956 17.6847 24.1788 16.5921V23.2516C24.1931 31.9435 14.8426 32.6049 12.1713 28.2946C10.3953 25.4289 11.0391 18.5398 17.4524 17.5184V21.136C15.9544 21.3828 15.1424 21.8429 14.6974 22.6936C11.9484 27.9505 21.537 31.0782 20.8744 22.6089V9.27759L24.1281 9.27771V9.27759Z" fill="#FEFEFE"/>
</g>
<defs>
<clipPath id="clip0_1_367">
<rect width="40" height="40" rx="20" fill="white"/>
</clipPath>
</defs>
</svg>
