<svg width="28" height="18" viewBox="0 0 28 18" fill="none" xmlns="http://www.w3.org/2000/svg">
<g clip-path="url(#clip0_2_685)">
<path d="M0 0H28V18H0V0Z" fill="white"/>
<path d="M0 0H28V1.38421H0V0ZM0 2.76842H28V4.15263H0V2.76842ZM0 5.53684H28V6.92105H0V5.53684ZM0 8.30526H28V9.68947H0V8.30526ZM0 11.0789H28V12.4632H0V11.0789ZM0 13.8474H28V15.2316H0V13.8474ZM0 16.6158H28V18H0V16.6158Z" fill="#D80027"/>
<path d="M0 0H14V9.68947H0V0Z" fill="#2E52B2"/>
<path d="M2.60912 7.30935L2.3908 6.63567L2.15064 7.30935H1.43018L2.01419 7.71462L1.79587 8.3883L2.3908 7.97251L2.96936 8.3883L2.74558 7.71462L3.34051 7.30935H2.60912ZM5.68203 7.30935L5.45825 6.63567L5.22901 7.30935H4.50854L5.09255 7.71462L4.87423 8.3883L5.45825 7.97251L6.04772 8.3883L5.8294 7.71462L6.41341 7.30935H5.68203ZM8.76585 7.30935L8.53115 6.63567L8.31283 7.30935H7.57599L8.17638 7.71462L7.94714 8.3883L8.53115 7.97251L9.13154 8.3883L8.9023 7.71462L9.48632 7.30935H8.76585ZM11.8333 7.30935L11.615 6.63567L11.3857 7.30935H10.6598L11.2493 7.71462L11.031 8.3883L11.615 7.97251L12.2044 8.3883L11.9697 7.71462L12.5701 7.30935H11.8333ZM5.45825 3.96199L5.22901 4.63567H4.50854L5.09255 5.05146L4.87423 5.71462L5.45825 5.30409L6.04772 5.71462L5.8294 5.05146L6.41341 4.63567H5.68203L5.45825 3.96199ZM2.3908 3.96199L2.15064 4.63567H1.43018L2.01419 5.05146L1.79587 5.71462L2.3908 5.30409L2.96936 5.71462L2.74558 5.05146L3.34051 4.63567H2.60912L2.3908 3.96199ZM8.53115 3.96199L8.31283 4.63567H7.57599L8.17638 5.05146L7.94714 5.71462L8.53115 5.30409L9.13154 5.71462L8.9023 5.05146L9.48632 4.63567H8.76585L8.53115 3.96199ZM11.615 3.96199L11.3857 4.63567H10.6598L11.2493 5.05146L11.031 5.71462L11.615 5.30409L12.2044 5.71462L11.9697 5.05146L12.5701 4.63567H11.8333L11.615 3.96199ZM2.3908 1.29883L2.15064 1.96199H1.43018L2.01419 2.37778L1.79587 3.0462L2.3908 2.63041L2.96936 3.0462L2.74558 2.37778L3.34051 1.96199H2.60912L2.3908 1.29883ZM5.45825 1.29883L5.22901 1.96199H4.50854L5.09255 2.37778L4.87423 3.0462L5.45825 2.63041L6.04772 3.0462L5.8294 2.37778L6.41341 1.96199H5.68203L5.45825 1.29883ZM8.53115 1.29883L8.31283 1.96199H7.57599L8.17638 2.37778L7.94714 3.0462L8.53115 2.63041L9.13154 3.0462L8.9023 2.37778L9.48632 1.96199H8.76585L8.53115 1.29883ZM11.615 1.29883L11.3857 1.96199H10.6598L11.2493 2.37778L11.031 3.0462L11.615 2.63041L12.2044 3.0462L11.9697 2.37778L12.5701 1.96199H11.8333L11.615 1.29883Z" fill="white"/>
</g>
<defs>
<clipPath id="clip0_2_685">
<rect width="28" height="18" fill="white"/>
</clipPath>
</defs>
</svg>
