<svg width="40" height="40" viewBox="0 0 40 40" fill="none" xmlns="http://www.w3.org/2000/svg">
<g clip-path="url(#clip0_1_365)">
<path fill-rule="evenodd" clip-rule="evenodd" d="M34.1717 5.8126C30.4121 2.06619 25.4118 0.00195138 20.084 0C9.10573 0 0.17098 8.89094 0.167137 19.8194C0.165255 23.313 1.08298 26.723 2.8258 29.7282L0 40L10.5582 37.2438C13.467 38.8235 16.7425 39.655 20.0755 39.6559H20.084C31.0604 39.6559 39.9962 30.7641 39.9999 19.8356C40.0018 14.5392 37.9324 9.56002 34.1717 5.81354V5.8126ZM20.084 36.3087H20.0773C17.1073 36.3078 14.1937 35.5132 11.6516 34.0126L11.0471 33.6553L4.78157 35.2908L6.45373 29.2112L6.06024 28.5877C4.40337 25.9647 3.52769 22.9329 3.52957 19.8204C3.53341 10.7375 10.9593 3.34723 20.0907 3.34723C24.5122 3.34918 28.6683 5.06468 31.7938 8.17907C34.9195 11.2925 36.6394 15.4325 36.6375 19.8337C36.6336 28.9175 29.2078 36.3078 20.084 36.3078V36.3087ZM29.1638 23.9708C28.6663 23.7227 26.2198 22.5252 25.7632 22.3598C25.3067 22.1944 24.9755 22.1118 24.644 22.6079C24.3126 23.1041 23.3587 24.2198 23.0683 24.5495C22.778 24.8803 22.4877 24.9212 21.9901 24.673C21.4926 24.425 19.8892 23.9023 17.9878 22.2153C16.5086 20.9019 15.5096 19.2806 15.2195 18.7844C14.9291 18.2884 15.1889 18.0203 15.4371 17.7741C15.6605 17.5518 15.9347 17.1954 16.1839 16.9065C16.4332 16.6175 16.5153 16.4104 16.6814 16.0806C16.8477 15.7498 16.7645 15.4611 16.6405 15.2128C16.5162 14.9649 15.5212 12.5271 15.1057 11.5358C14.7017 10.5703 14.2912 10.7014 13.9866 10.6853C13.6962 10.671 13.3649 10.6682 13.0325 10.6682C12.7002 10.6682 12.1616 10.7917 11.7051 11.2878C11.2486 11.7838 9.96322 12.9823 9.96322 15.4191C9.96322 17.8559 11.7462 20.212 11.9955 20.5428C12.2446 20.8735 15.5049 25.8753 20.4965 28.0214C21.6836 28.5317 22.6108 28.8367 23.3338 29.0648C24.5256 29.4421 25.6104 29.389 26.4679 29.2615C27.424 29.1191 29.4122 28.0631 29.8267 26.9064C30.241 25.7498 30.241 24.7576 30.1169 24.5513C29.9929 24.3452 29.6606 24.2206 29.163 23.9726L29.1638 23.9708Z" fill="#294628"/>
</g>
<defs>
<clipPath id="clip0_1_365">
<rect width="40" height="40" fill="white"/>
</clipPath>
</defs>
</svg>
